# xmcd CD database file
#
# Track frame offsets:
#	150
#	16500
#	40027
#	58042
#	76342
#	98213
#	114797
#	127634
#	154149
#	166461
#	179409
#	196287
#	209255
#
# Disc length: 3094 seconds
#
# Revision: 0
# Processed by: cddbd v1.5.1PL2 Copyright (c) Steve Scherf et al.
# Submitted via: CDex 1.51
#
DISCID=960c140d
DTITLE=Travelin' Blues - Nightly Things
DYEAR=2005
DGENRE=Blues
TTITLE0=Born By The River
TTITLE1=Nightly Things
TTITLE2=Ghetto Woman
TTITLE3=Rainy Night In Georgia
TTITLE4=Louisiana Blues
TTITLE5=Gut Bucket Boogie
TTITLE6=Sweet You
TTITLE7=She's Gone
TTITLE8=That Means So Much To Me
TTITLE9=Hambone
TTITLE10=Tin Pan Alley
TTITLE11=Trouble In Mind
TTITLE12=Voodoo Chile
EXTD=YEAR: 2005
EXTT0=
EXTT1=
EXTT2=
EXTT3=
EXTT4=
EXTT5=
EXTT6=
EXTT7=
EXTT8=
EXTT9=
EXTT10=
EXTT11=
EXTT12=
PLAYORDER=
